<mxfile host="Electron" agent="Mozilla/5.0 (Windows NT 10.0; Win64; x64) AppleWebKit/537.36 (KHTML, like Gecko) draw.io/24.7.17 Chrome/128.0.6613.36 Electron/32.0.1 Safari/537.36" version="24.7.17">
  <diagram name="第 1 页" id="GqaYeDAcBa39iaGWTPDn">
    <mxGraphModel dx="733" dy="1197" grid="1" gridSize="10" guides="1" tooltips="1" connect="1" arrows="1" fold="1" page="1" pageScale="1" pageWidth="827" pageHeight="1169" math="0" shadow="0">
      <root>
        <mxCell id="0" />
        <mxCell id="1" parent="0" />
        <mxCell id="_3a8YiENMzKRKPIrLzeu-1" value="" style="rounded=0;whiteSpace=wrap;html=1;" parent="1" vertex="1">
          <mxGeometry x="360" y="440" width="520" height="1600" as="geometry" />
        </mxCell>
        <mxCell id="_3a8YiENMzKRKPIrLzeu-9" value="" style="endArrow=classic;html=1;rounded=0;" parent="1" edge="1">
          <mxGeometry width="50" height="50" relative="1" as="geometry">
            <mxPoint x="280" y="480" as="sourcePoint" />
            <mxPoint x="360" y="480" as="targetPoint" />
          </mxGeometry>
        </mxCell>
        <mxCell id="_3a8YiENMzKRKPIrLzeu-17" value="&lt;span style=&quot;font-size: 18px;&quot;&gt;agu_i_valid&lt;/span&gt;" style="text;html=1;align=left;verticalAlign=middle;whiteSpace=wrap;rounded=0;" parent="1" vertex="1">
          <mxGeometry x="360" y="460" width="200" height="40" as="geometry" />
        </mxCell>
        <mxCell id="_3a8YiENMzKRKPIrLzeu-26" value="" style="endArrow=classic;html=1;rounded=0;" parent="1" edge="1">
          <mxGeometry width="50" height="50" relative="1" as="geometry">
            <mxPoint x="880" y="479.5" as="sourcePoint" />
            <mxPoint x="960" y="479.5" as="targetPoint" />
          </mxGeometry>
        </mxCell>
        <mxCell id="_3a8YiENMzKRKPIrLzeu-27" value="" style="endArrow=classic;html=1;rounded=0;" parent="1" edge="1">
          <mxGeometry width="50" height="50" relative="1" as="geometry">
            <mxPoint x="280" y="520" as="sourcePoint" />
            <mxPoint x="360" y="520" as="targetPoint" />
          </mxGeometry>
        </mxCell>
        <mxCell id="_3a8YiENMzKRKPIrLzeu-31" value="" style="endArrow=classic;html=1;rounded=0;" parent="1" edge="1">
          <mxGeometry width="50" height="50" relative="1" as="geometry">
            <mxPoint x="280" y="560" as="sourcePoint" />
            <mxPoint x="360" y="560" as="targetPoint" />
          </mxGeometry>
        </mxCell>
        <mxCell id="_3a8YiENMzKRKPIrLzeu-35" value="" style="endArrow=classic;html=1;rounded=0;" parent="1" edge="1">
          <mxGeometry width="50" height="50" relative="1" as="geometry">
            <mxPoint x="280" y="600" as="sourcePoint" />
            <mxPoint x="360" y="600" as="targetPoint" />
          </mxGeometry>
        </mxCell>
        <mxCell id="_3a8YiENMzKRKPIrLzeu-39" value="" style="endArrow=classic;html=1;rounded=0;" parent="1" edge="1">
          <mxGeometry width="50" height="50" relative="1" as="geometry">
            <mxPoint x="280" y="640" as="sourcePoint" />
            <mxPoint x="360" y="640" as="targetPoint" />
          </mxGeometry>
        </mxCell>
        <mxCell id="_3a8YiENMzKRKPIrLzeu-43" value="" style="endArrow=classic;html=1;rounded=0;" parent="1" edge="1">
          <mxGeometry width="50" height="50" relative="1" as="geometry">
            <mxPoint x="280" y="680" as="sourcePoint" />
            <mxPoint x="360" y="680" as="targetPoint" />
          </mxGeometry>
        </mxCell>
        <mxCell id="_3a8YiENMzKRKPIrLzeu-47" value="" style="endArrow=classic;html=1;rounded=0;" parent="1" edge="1">
          <mxGeometry width="50" height="50" relative="1" as="geometry">
            <mxPoint x="280" y="720" as="sourcePoint" />
            <mxPoint x="360" y="720" as="targetPoint" />
          </mxGeometry>
        </mxCell>
        <mxCell id="_3a8YiENMzKRKPIrLzeu-51" value="" style="endArrow=classic;html=1;rounded=0;" parent="1" edge="1">
          <mxGeometry width="50" height="50" relative="1" as="geometry">
            <mxPoint x="280" y="760" as="sourcePoint" />
            <mxPoint x="360" y="760" as="targetPoint" />
          </mxGeometry>
        </mxCell>
        <mxCell id="_3a8YiENMzKRKPIrLzeu-55" value="" style="endArrow=classic;html=1;rounded=0;" parent="1" edge="1">
          <mxGeometry width="50" height="50" relative="1" as="geometry">
            <mxPoint x="280" y="800" as="sourcePoint" />
            <mxPoint x="360" y="800" as="targetPoint" />
          </mxGeometry>
        </mxCell>
        <mxCell id="_3a8YiENMzKRKPIrLzeu-59" value="" style="endArrow=classic;html=1;rounded=0;" parent="1" edge="1">
          <mxGeometry width="50" height="50" relative="1" as="geometry">
            <mxPoint x="280" y="840" as="sourcePoint" />
            <mxPoint x="360" y="840" as="targetPoint" />
          </mxGeometry>
        </mxCell>
        <mxCell id="_3a8YiENMzKRKPIrLzeu-63" value="" style="endArrow=classic;html=1;rounded=0;" parent="1" edge="1">
          <mxGeometry width="50" height="50" relative="1" as="geometry">
            <mxPoint x="280" y="880" as="sourcePoint" />
            <mxPoint x="360" y="880" as="targetPoint" />
          </mxGeometry>
        </mxCell>
        <mxCell id="_3a8YiENMzKRKPIrLzeu-67" value="" style="endArrow=classic;html=1;rounded=0;" parent="1" edge="1">
          <mxGeometry width="50" height="50" relative="1" as="geometry">
            <mxPoint x="280" y="920" as="sourcePoint" />
            <mxPoint x="360" y="920" as="targetPoint" />
          </mxGeometry>
        </mxCell>
        <mxCell id="_3a8YiENMzKRKPIrLzeu-71" value="" style="endArrow=classic;html=1;rounded=0;" parent="1" edge="1">
          <mxGeometry width="50" height="50" relative="1" as="geometry">
            <mxPoint x="280" y="960" as="sourcePoint" />
            <mxPoint x="360" y="960" as="targetPoint" />
          </mxGeometry>
        </mxCell>
        <mxCell id="_3a8YiENMzKRKPIrLzeu-75" value="" style="endArrow=classic;html=1;rounded=0;" parent="1" edge="1">
          <mxGeometry width="50" height="50" relative="1" as="geometry">
            <mxPoint x="280" y="1000" as="sourcePoint" />
            <mxPoint x="360" y="1000" as="targetPoint" />
          </mxGeometry>
        </mxCell>
        <mxCell id="_3a8YiENMzKRKPIrLzeu-87" value="&lt;span style=&quot;font-size: 18px;&quot;&gt;e203_exu_alu_lsuagu&lt;/span&gt;" style="text;html=1;align=center;verticalAlign=middle;whiteSpace=wrap;rounded=0;" parent="1" vertex="1">
          <mxGeometry x="590" y="440" width="60" height="30" as="geometry" />
        </mxCell>
        <mxCell id="wlH1zYc57PTHNDlGmOBV-1" value="" style="endArrow=classic;html=1;rounded=0;" parent="1" edge="1">
          <mxGeometry width="50" height="50" relative="1" as="geometry">
            <mxPoint x="880" y="519.5" as="sourcePoint" />
            <mxPoint x="960" y="519.5" as="targetPoint" />
          </mxGeometry>
        </mxCell>
        <mxCell id="wlH1zYc57PTHNDlGmOBV-2" value="" style="endArrow=classic;html=1;rounded=0;" parent="1" edge="1">
          <mxGeometry width="50" height="50" relative="1" as="geometry">
            <mxPoint x="880" y="559.5" as="sourcePoint" />
            <mxPoint x="960" y="559.5" as="targetPoint" />
          </mxGeometry>
        </mxCell>
        <mxCell id="wlH1zYc57PTHNDlGmOBV-3" value="" style="endArrow=classic;html=1;rounded=0;" parent="1" edge="1">
          <mxGeometry width="50" height="50" relative="1" as="geometry">
            <mxPoint x="880" y="599.5" as="sourcePoint" />
            <mxPoint x="960" y="599.5" as="targetPoint" />
          </mxGeometry>
        </mxCell>
        <mxCell id="wlH1zYc57PTHNDlGmOBV-4" value="" style="endArrow=classic;html=1;rounded=0;" parent="1" edge="1">
          <mxGeometry width="50" height="50" relative="1" as="geometry">
            <mxPoint x="880" y="640" as="sourcePoint" />
            <mxPoint x="960" y="640" as="targetPoint" />
          </mxGeometry>
        </mxCell>
        <mxCell id="wlH1zYc57PTHNDlGmOBV-5" value="" style="endArrow=classic;html=1;rounded=0;" parent="1" edge="1">
          <mxGeometry width="50" height="50" relative="1" as="geometry">
            <mxPoint x="880" y="680" as="sourcePoint" />
            <mxPoint x="960" y="680" as="targetPoint" />
          </mxGeometry>
        </mxCell>
        <mxCell id="wlH1zYc57PTHNDlGmOBV-6" value="" style="endArrow=classic;html=1;rounded=0;" parent="1" edge="1">
          <mxGeometry width="50" height="50" relative="1" as="geometry">
            <mxPoint x="880" y="720" as="sourcePoint" />
            <mxPoint x="960" y="720" as="targetPoint" />
          </mxGeometry>
        </mxCell>
        <mxCell id="wlH1zYc57PTHNDlGmOBV-7" value="" style="endArrow=classic;html=1;rounded=0;" parent="1" edge="1">
          <mxGeometry width="50" height="50" relative="1" as="geometry">
            <mxPoint x="880" y="760" as="sourcePoint" />
            <mxPoint x="960" y="760" as="targetPoint" />
          </mxGeometry>
        </mxCell>
        <mxCell id="wlH1zYc57PTHNDlGmOBV-8" value="" style="endArrow=classic;html=1;rounded=0;" parent="1" edge="1">
          <mxGeometry width="50" height="50" relative="1" as="geometry">
            <mxPoint x="880" y="800" as="sourcePoint" />
            <mxPoint x="960" y="800" as="targetPoint" />
          </mxGeometry>
        </mxCell>
        <mxCell id="wlH1zYc57PTHNDlGmOBV-9" value="" style="endArrow=classic;html=1;rounded=0;" parent="1" edge="1">
          <mxGeometry width="50" height="50" relative="1" as="geometry">
            <mxPoint x="880" y="840" as="sourcePoint" />
            <mxPoint x="960" y="840" as="targetPoint" />
          </mxGeometry>
        </mxCell>
        <mxCell id="wlH1zYc57PTHNDlGmOBV-10" value="" style="endArrow=classic;html=1;rounded=0;" parent="1" edge="1">
          <mxGeometry width="50" height="50" relative="1" as="geometry">
            <mxPoint x="880" y="880" as="sourcePoint" />
            <mxPoint x="960" y="880" as="targetPoint" />
          </mxGeometry>
        </mxCell>
        <mxCell id="wlH1zYc57PTHNDlGmOBV-11" value="" style="endArrow=classic;html=1;rounded=0;" parent="1" edge="1">
          <mxGeometry width="50" height="50" relative="1" as="geometry">
            <mxPoint x="880" y="920" as="sourcePoint" />
            <mxPoint x="960" y="920" as="targetPoint" />
          </mxGeometry>
        </mxCell>
        <mxCell id="zMWLGIm6i4pCkFBHPuND-2" value="" style="endArrow=classic;html=1;rounded=0;" parent="1" edge="1">
          <mxGeometry width="50" height="50" relative="1" as="geometry">
            <mxPoint x="280" y="1040" as="sourcePoint" />
            <mxPoint x="360" y="1040" as="targetPoint" />
          </mxGeometry>
        </mxCell>
        <mxCell id="zMWLGIm6i4pCkFBHPuND-3" value="" style="endArrow=classic;html=1;rounded=0;" parent="1" edge="1">
          <mxGeometry width="50" height="50" relative="1" as="geometry">
            <mxPoint x="280" y="1080" as="sourcePoint" />
            <mxPoint x="360" y="1080" as="targetPoint" />
          </mxGeometry>
        </mxCell>
        <mxCell id="zMWLGIm6i4pCkFBHPuND-6" value="" style="endArrow=classic;html=1;rounded=0;" parent="1" edge="1">
          <mxGeometry width="50" height="50" relative="1" as="geometry">
            <mxPoint x="280" y="1120" as="sourcePoint" />
            <mxPoint x="360" y="1120" as="targetPoint" />
          </mxGeometry>
        </mxCell>
        <mxCell id="unABgJLcHEa5XkPhuNoP-1" value="&lt;span style=&quot;font-size: 18px;&quot;&gt;agu_i_ready&lt;/span&gt;" style="text;html=1;align=right;verticalAlign=middle;whiteSpace=wrap;rounded=0;" parent="1" vertex="1">
          <mxGeometry x="680" y="460" width="200" height="40" as="geometry" />
        </mxCell>
        <mxCell id="unABgJLcHEa5XkPhuNoP-2" value="&lt;span style=&quot;font-size: 18px;&quot;&gt;agu_i_rs1&lt;/span&gt;" style="text;html=1;align=left;verticalAlign=middle;whiteSpace=wrap;rounded=0;" parent="1" vertex="1">
          <mxGeometry x="360" y="500" width="200" height="40" as="geometry" />
        </mxCell>
        <mxCell id="unABgJLcHEa5XkPhuNoP-3" value="&lt;span style=&quot;font-size: 18px; text-align: left;&quot;&gt;agu_i_longpipe&lt;/span&gt;" style="text;html=1;align=right;verticalAlign=middle;whiteSpace=wrap;rounded=0;" parent="1" vertex="1">
          <mxGeometry x="680" y="500" width="200" height="40" as="geometry" />
        </mxCell>
        <mxCell id="unABgJLcHEa5XkPhuNoP-4" value="&lt;span style=&quot;font-size: 18px;&quot;&gt;agu_i_rs2&lt;/span&gt;" style="text;html=1;align=left;verticalAlign=middle;whiteSpace=wrap;rounded=0;" parent="1" vertex="1">
          <mxGeometry x="360" y="540" width="200" height="40" as="geometry" />
        </mxCell>
        <mxCell id="unABgJLcHEa5XkPhuNoP-5" value="&lt;span style=&quot;font-size: 18px;&quot;&gt;amo_wait&lt;/span&gt;" style="text;html=1;align=right;verticalAlign=middle;whiteSpace=wrap;rounded=0;" parent="1" vertex="1">
          <mxGeometry x="680" y="540" width="200" height="40" as="geometry" />
        </mxCell>
        <mxCell id="unABgJLcHEa5XkPhuNoP-6" value="&lt;span style=&quot;font-size: 18px;&quot;&gt;agu_i_imm&lt;/span&gt;" style="text;html=1;align=left;verticalAlign=middle;whiteSpace=wrap;rounded=0;" parent="1" vertex="1">
          <mxGeometry x="360" y="580" width="200" height="40" as="geometry" />
        </mxCell>
        <mxCell id="unABgJLcHEa5XkPhuNoP-7" value="&lt;span style=&quot;font-size: 18px;&quot;&gt;agu_o_valid&lt;/span&gt;" style="text;html=1;align=right;verticalAlign=middle;whiteSpace=wrap;rounded=0;" parent="1" vertex="1">
          <mxGeometry x="680" y="580" width="200" height="40" as="geometry" />
        </mxCell>
        <mxCell id="unABgJLcHEa5XkPhuNoP-24" value="&lt;span style=&quot;font-size: 18px;&quot;&gt;agu_i_info&lt;/span&gt;" style="text;html=1;align=left;verticalAlign=middle;whiteSpace=wrap;rounded=0;" parent="1" vertex="1">
          <mxGeometry x="360" y="620" width="200" height="40" as="geometry" />
        </mxCell>
        <mxCell id="unABgJLcHEa5XkPhuNoP-25" value="&lt;span style=&quot;font-size: 18px;&quot;&gt;agu_o_ready&lt;/span&gt;" style="text;html=1;align=left;verticalAlign=middle;whiteSpace=wrap;rounded=0;" parent="1" vertex="1">
          <mxGeometry x="360" y="820" width="200" height="40" as="geometry" />
        </mxCell>
        <mxCell id="unABgJLcHEa5XkPhuNoP-26" value="&lt;span style=&quot;font-size: 18px;&quot;&gt;agu_i_itag&lt;/span&gt;" style="text;html=1;align=left;verticalAlign=middle;whiteSpace=wrap;rounded=0;" parent="1" vertex="1">
          <mxGeometry x="360" y="660" width="200" height="40" as="geometry" />
        </mxCell>
        <mxCell id="unABgJLcHEa5XkPhuNoP-27" value="&lt;span style=&quot;font-size: 18px;&quot;&gt;agu_o_wbck_wdat&lt;/span&gt;" style="text;html=1;align=right;verticalAlign=middle;whiteSpace=wrap;rounded=0;" parent="1" vertex="1">
          <mxGeometry x="680" y="660" width="200" height="40" as="geometry" />
        </mxCell>
        <mxCell id="unABgJLcHEa5XkPhuNoP-28" value="&lt;span style=&quot;font-size: 18px;&quot;&gt;flush_req&lt;/span&gt;" style="text;html=1;align=left;verticalAlign=middle;whiteSpace=wrap;rounded=0;" parent="1" vertex="1">
          <mxGeometry x="360" y="700" width="200" height="40" as="geometry" />
        </mxCell>
        <mxCell id="unABgJLcHEa5XkPhuNoP-29" value="&lt;span style=&quot;font-size: 18px;&quot;&gt;agu_o_wbck_err&lt;/span&gt;" style="text;html=1;align=right;verticalAlign=middle;whiteSpace=wrap;rounded=0;" parent="1" vertex="1">
          <mxGeometry x="680" y="700" width="200" height="40" as="geometry" />
        </mxCell>
        <mxCell id="unABgJLcHEa5XkPhuNoP-30" value="&lt;span style=&quot;font-size: 18px;&quot;&gt;flush_pulse&lt;/span&gt;" style="text;html=1;align=left;verticalAlign=middle;whiteSpace=wrap;rounded=0;" parent="1" vertex="1">
          <mxGeometry x="360" y="740" width="200" height="40" as="geometry" />
        </mxCell>
        <mxCell id="unABgJLcHEa5XkPhuNoP-31" value="&lt;span style=&quot;font-size: 18px;&quot;&gt;agu_o_cmt_misalgn&lt;/span&gt;" style="text;html=1;align=right;verticalAlign=middle;whiteSpace=wrap;rounded=0;" parent="1" vertex="1">
          <mxGeometry x="680" y="740" width="200" height="40" as="geometry" />
        </mxCell>
        <mxCell id="unABgJLcHEa5XkPhuNoP-32" value="&lt;span style=&quot;font-size: 18px;&quot;&gt;oitf_empty&lt;/span&gt;" style="text;html=1;align=left;verticalAlign=middle;whiteSpace=wrap;rounded=0;" parent="1" vertex="1">
          <mxGeometry x="360" y="780" width="200" height="40" as="geometry" />
        </mxCell>
        <mxCell id="unABgJLcHEa5XkPhuNoP-33" value="&lt;span style=&quot;font-size: 18px;&quot;&gt;agu_o_cmt_ld&lt;/span&gt;" style="text;html=1;align=right;verticalAlign=middle;whiteSpace=wrap;rounded=0;" parent="1" vertex="1">
          <mxGeometry x="680" y="780" width="200" height="40" as="geometry" />
        </mxCell>
        <mxCell id="unABgJLcHEa5XkPhuNoP-34" value="&lt;span style=&quot;font-size: 18px;&quot;&gt;agu_icb_cmd_ready&lt;/span&gt;" style="text;html=1;align=left;verticalAlign=middle;whiteSpace=wrap;rounded=0;" parent="1" vertex="1">
          <mxGeometry x="360" y="860" width="200" height="40" as="geometry" />
        </mxCell>
        <mxCell id="unABgJLcHEa5XkPhuNoP-35" value="&lt;span style=&quot;font-size: 18px;&quot;&gt;agu_o_cmt_stamo&lt;/span&gt;" style="text;html=1;align=right;verticalAlign=middle;whiteSpace=wrap;rounded=0;" parent="1" vertex="1">
          <mxGeometry x="680" y="820" width="200" height="40" as="geometry" />
        </mxCell>
        <mxCell id="unABgJLcHEa5XkPhuNoP-37" value="&lt;span style=&quot;font-size: 18px;&quot;&gt;agu_o_cmt_buserr&lt;/span&gt;" style="text;html=1;align=right;verticalAlign=middle;whiteSpace=wrap;rounded=0;" parent="1" vertex="1">
          <mxGeometry x="680" y="860" width="200" height="40" as="geometry" />
        </mxCell>
        <mxCell id="unABgJLcHEa5XkPhuNoP-39" value="&lt;span style=&quot;font-size: 18px;&quot;&gt;agu_o_cmt_badaddr&lt;/span&gt;" style="text;html=1;align=right;verticalAlign=middle;whiteSpace=wrap;rounded=0;" parent="1" vertex="1">
          <mxGeometry x="680" y="900" width="200" height="40" as="geometry" />
        </mxCell>
        <mxCell id="unABgJLcHEa5XkPhuNoP-40" value="&lt;span style=&quot;font-size: 18px;&quot;&gt;agu_icb_rsp_err&lt;/span&gt;" style="text;html=1;align=left;verticalAlign=middle;whiteSpace=wrap;rounded=0;" parent="1" vertex="1">
          <mxGeometry x="360" y="940" width="200" height="40" as="geometry" />
        </mxCell>
        <mxCell id="unABgJLcHEa5XkPhuNoP-41" value="&lt;span style=&quot;font-size: 18px; text-align: left;&quot;&gt;agu_icb_cmd_valid&lt;/span&gt;" style="text;html=1;align=right;verticalAlign=middle;whiteSpace=wrap;rounded=0;" parent="1" vertex="1">
          <mxGeometry x="680" y="940" width="200" height="40" as="geometry" />
        </mxCell>
        <mxCell id="unABgJLcHEa5XkPhuNoP-42" value="&lt;span style=&quot;font-size: 18px;&quot;&gt;agu_icb_rsp_excl_ok&lt;/span&gt;" style="text;html=1;align=left;verticalAlign=middle;whiteSpace=wrap;rounded=0;" parent="1" vertex="1">
          <mxGeometry x="360" y="980" width="200" height="40" as="geometry" />
        </mxCell>
        <mxCell id="unABgJLcHEa5XkPhuNoP-43" value="&lt;span style=&quot;font-size: 18px; text-align: left;&quot;&gt;agu_icb_cmd_addr&lt;/span&gt;" style="text;html=1;align=right;verticalAlign=middle;whiteSpace=wrap;rounded=0;" parent="1" vertex="1">
          <mxGeometry x="680" y="980" width="200" height="40" as="geometry" />
        </mxCell>
        <mxCell id="unABgJLcHEa5XkPhuNoP-44" value="&lt;span style=&quot;font-size: 18px;&quot;&gt;agu_icb_rsp_rdata&lt;/span&gt;" style="text;html=1;align=left;verticalAlign=middle;whiteSpace=wrap;rounded=0;" parent="1" vertex="1">
          <mxGeometry x="360" y="1020" width="200" height="40" as="geometry" />
        </mxCell>
        <mxCell id="unABgJLcHEa5XkPhuNoP-45" value="&lt;span style=&quot;font-size: 18px; text-align: left;&quot;&gt;agu_icb_cmd_read&lt;/span&gt;" style="text;html=1;align=right;verticalAlign=middle;whiteSpace=wrap;rounded=0;" parent="1" vertex="1">
          <mxGeometry x="680" y="1020" width="200" height="40" as="geometry" />
        </mxCell>
        <mxCell id="unABgJLcHEa5XkPhuNoP-46" value="&lt;span style=&quot;font-size: 18px;&quot;&gt;agu_req_alu_res&lt;/span&gt;" style="text;html=1;align=left;verticalAlign=middle;whiteSpace=wrap;rounded=0;" parent="1" vertex="1">
          <mxGeometry x="360" y="1060" width="200" height="40" as="geometry" />
        </mxCell>
        <mxCell id="unABgJLcHEa5XkPhuNoP-47" value="&lt;span style=&quot;font-size: 18px; text-align: left;&quot;&gt;agu_icb_cmd_&lt;/span&gt;&lt;span style=&quot;font-size: 18px;&quot;&gt;wdata&lt;/span&gt;" style="text;html=1;align=right;verticalAlign=middle;whiteSpace=wrap;rounded=0;" parent="1" vertex="1">
          <mxGeometry x="680" y="1060" width="200" height="40" as="geometry" />
        </mxCell>
        <mxCell id="unABgJLcHEa5XkPhuNoP-48" value="&lt;span style=&quot;font-size: 18px;&quot;&gt;agu_sbf_0_r&lt;/span&gt;" style="text;html=1;align=left;verticalAlign=middle;whiteSpace=wrap;rounded=0;" parent="1" vertex="1">
          <mxGeometry x="360" y="1100" width="200" height="40" as="geometry" />
        </mxCell>
        <mxCell id="unABgJLcHEa5XkPhuNoP-49" value="&lt;span style=&quot;font-size: 18px; text-align: left;&quot;&gt;agu_icb_cmd_&lt;/span&gt;&lt;span style=&quot;font-size: 18px;&quot;&gt;wmask&lt;/span&gt;" style="text;html=1;align=right;verticalAlign=middle;whiteSpace=wrap;rounded=0;" parent="1" vertex="1">
          <mxGeometry x="680" y="1100" width="200" height="40" as="geometry" />
        </mxCell>
        <mxCell id="unABgJLcHEa5XkPhuNoP-50" value="" style="endArrow=classic;html=1;rounded=0;" parent="1" edge="1">
          <mxGeometry width="50" height="50" relative="1" as="geometry">
            <mxPoint x="880" y="960" as="sourcePoint" />
            <mxPoint x="960" y="960" as="targetPoint" />
          </mxGeometry>
        </mxCell>
        <mxCell id="unABgJLcHEa5XkPhuNoP-51" value="" style="endArrow=classic;html=1;rounded=0;" parent="1" edge="1">
          <mxGeometry width="50" height="50" relative="1" as="geometry">
            <mxPoint x="880" y="1000" as="sourcePoint" />
            <mxPoint x="960" y="1000" as="targetPoint" />
          </mxGeometry>
        </mxCell>
        <mxCell id="unABgJLcHEa5XkPhuNoP-52" value="" style="endArrow=classic;html=1;rounded=0;" parent="1" edge="1">
          <mxGeometry width="50" height="50" relative="1" as="geometry">
            <mxPoint x="880" y="1040" as="sourcePoint" />
            <mxPoint x="960" y="1040" as="targetPoint" />
          </mxGeometry>
        </mxCell>
        <mxCell id="unABgJLcHEa5XkPhuNoP-53" value="" style="endArrow=classic;html=1;rounded=0;" parent="1" edge="1">
          <mxGeometry width="50" height="50" relative="1" as="geometry">
            <mxPoint x="880" y="1080" as="sourcePoint" />
            <mxPoint x="960" y="1080" as="targetPoint" />
          </mxGeometry>
        </mxCell>
        <mxCell id="unABgJLcHEa5XkPhuNoP-54" value="" style="endArrow=classic;html=1;rounded=0;" parent="1" edge="1">
          <mxGeometry width="50" height="50" relative="1" as="geometry">
            <mxPoint x="880" y="1119.5" as="sourcePoint" />
            <mxPoint x="960" y="1119.5" as="targetPoint" />
          </mxGeometry>
        </mxCell>
        <mxCell id="jVBs19aCsxQHMaPXjaEd-1" value="" style="endArrow=classic;html=1;rounded=0;" edge="1" parent="1">
          <mxGeometry width="50" height="50" relative="1" as="geometry">
            <mxPoint x="280" y="1160" as="sourcePoint" />
            <mxPoint x="360" y="1160" as="targetPoint" />
          </mxGeometry>
        </mxCell>
        <mxCell id="jVBs19aCsxQHMaPXjaEd-2" value="" style="endArrow=classic;html=1;rounded=0;" edge="1" parent="1">
          <mxGeometry width="50" height="50" relative="1" as="geometry">
            <mxPoint x="280" y="1200" as="sourcePoint" />
            <mxPoint x="360" y="1200" as="targetPoint" />
          </mxGeometry>
        </mxCell>
        <mxCell id="jVBs19aCsxQHMaPXjaEd-3" value="" style="endArrow=classic;html=1;rounded=0;" edge="1" parent="1">
          <mxGeometry width="50" height="50" relative="1" as="geometry">
            <mxPoint x="280" y="1240" as="sourcePoint" />
            <mxPoint x="360" y="1240" as="targetPoint" />
          </mxGeometry>
        </mxCell>
        <mxCell id="jVBs19aCsxQHMaPXjaEd-6" value="" style="endArrow=classic;html=1;rounded=0;" edge="1" parent="1">
          <mxGeometry width="50" height="50" relative="1" as="geometry">
            <mxPoint x="880" y="1160" as="sourcePoint" />
            <mxPoint x="960" y="1160" as="targetPoint" />
          </mxGeometry>
        </mxCell>
        <mxCell id="jVBs19aCsxQHMaPXjaEd-7" value="" style="endArrow=classic;html=1;rounded=0;" edge="1" parent="1">
          <mxGeometry width="50" height="50" relative="1" as="geometry">
            <mxPoint x="880" y="1200" as="sourcePoint" />
            <mxPoint x="960" y="1200" as="targetPoint" />
          </mxGeometry>
        </mxCell>
        <mxCell id="jVBs19aCsxQHMaPXjaEd-8" value="" style="endArrow=classic;html=1;rounded=0;" edge="1" parent="1">
          <mxGeometry width="50" height="50" relative="1" as="geometry">
            <mxPoint x="880" y="1240" as="sourcePoint" />
            <mxPoint x="960" y="1240" as="targetPoint" />
          </mxGeometry>
        </mxCell>
        <mxCell id="jVBs19aCsxQHMaPXjaEd-12" value="&lt;span style=&quot;font-size: 18px;&quot;&gt;agu_sbf_1_r&lt;/span&gt;" style="text;html=1;align=left;verticalAlign=middle;whiteSpace=wrap;rounded=0;" vertex="1" parent="1">
          <mxGeometry x="360" y="1140" width="200" height="40" as="geometry" />
        </mxCell>
        <mxCell id="jVBs19aCsxQHMaPXjaEd-13" value="&lt;span style=&quot;font-size: 18px; text-align: left;&quot;&gt;agu_icb_cmd_back2agu&lt;/span&gt;" style="text;html=1;align=right;verticalAlign=middle;whiteSpace=wrap;rounded=0;" vertex="1" parent="1">
          <mxGeometry x="680" y="1140" width="200" height="40" as="geometry" />
        </mxCell>
        <mxCell id="jVBs19aCsxQHMaPXjaEd-14" value="&lt;span style=&quot;font-size: 18px;&quot;&gt;clk&lt;/span&gt;" style="text;html=1;align=left;verticalAlign=middle;whiteSpace=wrap;rounded=0;" vertex="1" parent="1">
          <mxGeometry x="360" y="1180" width="200" height="40" as="geometry" />
        </mxCell>
        <mxCell id="jVBs19aCsxQHMaPXjaEd-15" value="&lt;span style=&quot;font-size: 18px; text-align: left;&quot;&gt;agu_icb_cmd_lock&lt;/span&gt;" style="text;html=1;align=right;verticalAlign=middle;whiteSpace=wrap;rounded=0;" vertex="1" parent="1">
          <mxGeometry x="680" y="1180" width="200" height="40" as="geometry" />
        </mxCell>
        <mxCell id="jVBs19aCsxQHMaPXjaEd-16" value="&lt;span style=&quot;font-size: 18px;&quot;&gt;rst_n&lt;/span&gt;" style="text;html=1;align=left;verticalAlign=middle;whiteSpace=wrap;rounded=0;" vertex="1" parent="1">
          <mxGeometry x="360" y="1220" width="200" height="40" as="geometry" />
        </mxCell>
        <mxCell id="jVBs19aCsxQHMaPXjaEd-17" value="&lt;span style=&quot;font-size: 18px; text-align: left;&quot;&gt;agu_icb_cmd_excl&lt;/span&gt;" style="text;html=1;align=right;verticalAlign=middle;whiteSpace=wrap;rounded=0;" vertex="1" parent="1">
          <mxGeometry x="680" y="1220" width="200" height="40" as="geometry" />
        </mxCell>
        <mxCell id="jVBs19aCsxQHMaPXjaEd-19" value="&lt;span style=&quot;font-size: 18px; text-align: left;&quot;&gt;agu_icb_cmd_size&lt;/span&gt;" style="text;html=1;align=right;verticalAlign=middle;whiteSpace=wrap;rounded=0;" vertex="1" parent="1">
          <mxGeometry x="680" y="1260" width="200" height="40" as="geometry" />
        </mxCell>
        <mxCell id="jVBs19aCsxQHMaPXjaEd-21" value="&lt;span style=&quot;font-size: 18px;&quot;&gt;agu_icb_cmd_itag&lt;/span&gt;" style="text;html=1;align=right;verticalAlign=middle;whiteSpace=wrap;rounded=0;" vertex="1" parent="1">
          <mxGeometry x="680" y="1300" width="200" height="40" as="geometry" />
        </mxCell>
        <mxCell id="jVBs19aCsxQHMaPXjaEd-23" value="&lt;span style=&quot;font-size: 18px;&quot;&gt;agu_icb_cmd_usign&lt;/span&gt;" style="text;html=1;align=right;verticalAlign=middle;whiteSpace=wrap;rounded=0;" vertex="1" parent="1">
          <mxGeometry x="680" y="1340" width="200" height="40" as="geometry" />
        </mxCell>
        <mxCell id="jVBs19aCsxQHMaPXjaEd-25" value="&lt;span style=&quot;font-size: 18px; text-align: left;&quot;&gt;agu_icb_rsp_ready&lt;/span&gt;" style="text;html=1;align=right;verticalAlign=middle;whiteSpace=wrap;rounded=0;" vertex="1" parent="1">
          <mxGeometry x="680" y="1380" width="200" height="40" as="geometry" />
        </mxCell>
        <mxCell id="jVBs19aCsxQHMaPXjaEd-27" value="&lt;div style=&quot;text-align: left;&quot;&gt;&lt;span style=&quot;background-color: initial; font-size: 18px;&quot;&gt;agu_req_alu_op1&lt;/span&gt;&lt;/div&gt;" style="text;html=1;align=right;verticalAlign=middle;whiteSpace=wrap;rounded=0;" vertex="1" parent="1">
          <mxGeometry x="680" y="1420" width="200" height="40" as="geometry" />
        </mxCell>
        <mxCell id="jVBs19aCsxQHMaPXjaEd-28" value="" style="endArrow=classic;html=1;rounded=0;" edge="1" parent="1">
          <mxGeometry width="50" height="50" relative="1" as="geometry">
            <mxPoint x="880" y="1280" as="sourcePoint" />
            <mxPoint x="960" y="1280" as="targetPoint" />
          </mxGeometry>
        </mxCell>
        <mxCell id="jVBs19aCsxQHMaPXjaEd-29" value="" style="endArrow=classic;html=1;rounded=0;" edge="1" parent="1">
          <mxGeometry width="50" height="50" relative="1" as="geometry">
            <mxPoint x="880" y="1320" as="sourcePoint" />
            <mxPoint x="960" y="1320" as="targetPoint" />
          </mxGeometry>
        </mxCell>
        <mxCell id="jVBs19aCsxQHMaPXjaEd-30" value="" style="endArrow=classic;html=1;rounded=0;" edge="1" parent="1">
          <mxGeometry width="50" height="50" relative="1" as="geometry">
            <mxPoint x="880" y="1360" as="sourcePoint" />
            <mxPoint x="960" y="1360" as="targetPoint" />
          </mxGeometry>
        </mxCell>
        <mxCell id="jVBs19aCsxQHMaPXjaEd-31" value="" style="endArrow=classic;html=1;rounded=0;" edge="1" parent="1">
          <mxGeometry width="50" height="50" relative="1" as="geometry">
            <mxPoint x="880" y="1400" as="sourcePoint" />
            <mxPoint x="960" y="1400" as="targetPoint" />
          </mxGeometry>
        </mxCell>
        <mxCell id="jVBs19aCsxQHMaPXjaEd-32" value="" style="endArrow=classic;html=1;rounded=0;" edge="1" parent="1">
          <mxGeometry width="50" height="50" relative="1" as="geometry">
            <mxPoint x="880" y="1439.5" as="sourcePoint" />
            <mxPoint x="960" y="1439.5" as="targetPoint" />
          </mxGeometry>
        </mxCell>
        <mxCell id="jVBs19aCsxQHMaPXjaEd-36" value="&lt;span style=&quot;font-size: 18px; text-align: left;&quot;&gt;agu_req_alu_op2&lt;/span&gt;" style="text;html=1;align=right;verticalAlign=middle;whiteSpace=wrap;rounded=0;" vertex="1" parent="1">
          <mxGeometry x="680" y="1460" width="200" height="40" as="geometry" />
        </mxCell>
        <mxCell id="jVBs19aCsxQHMaPXjaEd-38" value="&lt;span style=&quot;font-size: 18px; text-align: left;&quot;&gt;agu_req_alu_swap&lt;/span&gt;" style="text;html=1;align=right;verticalAlign=middle;whiteSpace=wrap;rounded=0;" vertex="1" parent="1">
          <mxGeometry x="680" y="1500" width="200" height="40" as="geometry" />
        </mxCell>
        <mxCell id="jVBs19aCsxQHMaPXjaEd-39" value="" style="endArrow=classic;html=1;rounded=0;" edge="1" parent="1">
          <mxGeometry width="50" height="50" relative="1" as="geometry">
            <mxPoint x="880" y="1480" as="sourcePoint" />
            <mxPoint x="960" y="1480" as="targetPoint" />
          </mxGeometry>
        </mxCell>
        <mxCell id="jVBs19aCsxQHMaPXjaEd-40" value="" style="endArrow=classic;html=1;rounded=0;" edge="1" parent="1">
          <mxGeometry width="50" height="50" relative="1" as="geometry">
            <mxPoint x="880" y="1519.5" as="sourcePoint" />
            <mxPoint x="960" y="1519.5" as="targetPoint" />
          </mxGeometry>
        </mxCell>
        <mxCell id="jVBs19aCsxQHMaPXjaEd-44" value="&lt;span style=&quot;font-size: 18px; text-align: left;&quot;&gt;agu_req_alu_add&lt;/span&gt;" style="text;html=1;align=right;verticalAlign=middle;whiteSpace=wrap;rounded=0;" vertex="1" parent="1">
          <mxGeometry x="680" y="1540" width="200" height="40" as="geometry" />
        </mxCell>
        <mxCell id="jVBs19aCsxQHMaPXjaEd-46" value="&lt;span style=&quot;font-size: 18px; text-align: left;&quot;&gt;agu_req_alu_and&lt;/span&gt;" style="text;html=1;align=right;verticalAlign=middle;whiteSpace=wrap;rounded=0;" vertex="1" parent="1">
          <mxGeometry x="680" y="1580" width="200" height="40" as="geometry" />
        </mxCell>
        <mxCell id="jVBs19aCsxQHMaPXjaEd-47" value="" style="endArrow=classic;html=1;rounded=0;" edge="1" parent="1">
          <mxGeometry width="50" height="50" relative="1" as="geometry">
            <mxPoint x="880" y="1560" as="sourcePoint" />
            <mxPoint x="960" y="1560" as="targetPoint" />
          </mxGeometry>
        </mxCell>
        <mxCell id="jVBs19aCsxQHMaPXjaEd-48" value="" style="endArrow=classic;html=1;rounded=0;" edge="1" parent="1">
          <mxGeometry width="50" height="50" relative="1" as="geometry">
            <mxPoint x="880" y="1599.5" as="sourcePoint" />
            <mxPoint x="960" y="1599.5" as="targetPoint" />
          </mxGeometry>
        </mxCell>
        <mxCell id="jVBs19aCsxQHMaPXjaEd-52" value="&lt;span style=&quot;font-size: 18px; text-align: left;&quot;&gt;agu_req_alu_or&lt;/span&gt;" style="text;html=1;align=right;verticalAlign=middle;whiteSpace=wrap;rounded=0;" vertex="1" parent="1">
          <mxGeometry x="680" y="1620" width="200" height="40" as="geometry" />
        </mxCell>
        <mxCell id="jVBs19aCsxQHMaPXjaEd-54" value="&lt;span style=&quot;font-size: 18px; text-align: left;&quot;&gt;agu_req_alu_xor&lt;/span&gt;" style="text;html=1;align=right;verticalAlign=middle;whiteSpace=wrap;rounded=0;" vertex="1" parent="1">
          <mxGeometry x="680" y="1660" width="200" height="40" as="geometry" />
        </mxCell>
        <mxCell id="jVBs19aCsxQHMaPXjaEd-55" value="" style="endArrow=classic;html=1;rounded=0;" edge="1" parent="1">
          <mxGeometry width="50" height="50" relative="1" as="geometry">
            <mxPoint x="880" y="1640" as="sourcePoint" />
            <mxPoint x="960" y="1640" as="targetPoint" />
          </mxGeometry>
        </mxCell>
        <mxCell id="jVBs19aCsxQHMaPXjaEd-56" value="" style="endArrow=classic;html=1;rounded=0;" edge="1" parent="1">
          <mxGeometry width="50" height="50" relative="1" as="geometry">
            <mxPoint x="880" y="1679.5" as="sourcePoint" />
            <mxPoint x="960" y="1679.5" as="targetPoint" />
          </mxGeometry>
        </mxCell>
        <mxCell id="jVBs19aCsxQHMaPXjaEd-60" value="&lt;span style=&quot;font-size: 18px; text-align: left;&quot;&gt;agu_req_alu_max&lt;/span&gt;" style="text;html=1;align=right;verticalAlign=middle;whiteSpace=wrap;rounded=0;" vertex="1" parent="1">
          <mxGeometry x="680" y="1700" width="200" height="40" as="geometry" />
        </mxCell>
        <mxCell id="jVBs19aCsxQHMaPXjaEd-62" value="&lt;span style=&quot;font-size: 18px; text-align: left;&quot;&gt;agu_req_alu_min&lt;/span&gt;" style="text;html=1;align=right;verticalAlign=middle;whiteSpace=wrap;rounded=0;" vertex="1" parent="1">
          <mxGeometry x="680" y="1740" width="200" height="40" as="geometry" />
        </mxCell>
        <mxCell id="jVBs19aCsxQHMaPXjaEd-63" value="" style="endArrow=classic;html=1;rounded=0;" edge="1" parent="1">
          <mxGeometry width="50" height="50" relative="1" as="geometry">
            <mxPoint x="880" y="1720" as="sourcePoint" />
            <mxPoint x="960" y="1720" as="targetPoint" />
          </mxGeometry>
        </mxCell>
        <mxCell id="jVBs19aCsxQHMaPXjaEd-64" value="" style="endArrow=classic;html=1;rounded=0;" edge="1" parent="1">
          <mxGeometry width="50" height="50" relative="1" as="geometry">
            <mxPoint x="880" y="1759.5" as="sourcePoint" />
            <mxPoint x="960" y="1759.5" as="targetPoint" />
          </mxGeometry>
        </mxCell>
        <mxCell id="jVBs19aCsxQHMaPXjaEd-68" value="&lt;span style=&quot;font-size: 18px; text-align: left;&quot;&gt;agu_req_alu_maxu&lt;/span&gt;" style="text;html=1;align=right;verticalAlign=middle;whiteSpace=wrap;rounded=0;" vertex="1" parent="1">
          <mxGeometry x="680" y="1780" width="200" height="40" as="geometry" />
        </mxCell>
        <mxCell id="jVBs19aCsxQHMaPXjaEd-70" value="&lt;span style=&quot;font-size: 18px; text-align: left;&quot;&gt;agu_req_alu_minu&lt;/span&gt;" style="text;html=1;align=right;verticalAlign=middle;whiteSpace=wrap;rounded=0;" vertex="1" parent="1">
          <mxGeometry x="680" y="1820" width="200" height="40" as="geometry" />
        </mxCell>
        <mxCell id="jVBs19aCsxQHMaPXjaEd-71" value="" style="endArrow=classic;html=1;rounded=0;" edge="1" parent="1">
          <mxGeometry width="50" height="50" relative="1" as="geometry">
            <mxPoint x="880" y="1800" as="sourcePoint" />
            <mxPoint x="960" y="1800" as="targetPoint" />
          </mxGeometry>
        </mxCell>
        <mxCell id="jVBs19aCsxQHMaPXjaEd-72" value="" style="endArrow=classic;html=1;rounded=0;" edge="1" parent="1">
          <mxGeometry width="50" height="50" relative="1" as="geometry">
            <mxPoint x="880" y="1839.5" as="sourcePoint" />
            <mxPoint x="960" y="1839.5" as="targetPoint" />
          </mxGeometry>
        </mxCell>
        <mxCell id="jVBs19aCsxQHMaPXjaEd-76" value="&lt;span style=&quot;font-size: 18px; text-align: left;&quot;&gt;agu_sbf_0_ena&lt;/span&gt;" style="text;html=1;align=right;verticalAlign=middle;whiteSpace=wrap;rounded=0;" vertex="1" parent="1">
          <mxGeometry x="680" y="1860" width="200" height="40" as="geometry" />
        </mxCell>
        <mxCell id="jVBs19aCsxQHMaPXjaEd-78" value="&lt;span style=&quot;font-size: 18px; text-align: left;&quot;&gt;agu_sbf_0_nxt&lt;/span&gt;" style="text;html=1;align=right;verticalAlign=middle;whiteSpace=wrap;rounded=0;" vertex="1" parent="1">
          <mxGeometry x="680" y="1900" width="200" height="40" as="geometry" />
        </mxCell>
        <mxCell id="jVBs19aCsxQHMaPXjaEd-79" value="" style="endArrow=classic;html=1;rounded=0;" edge="1" parent="1">
          <mxGeometry width="50" height="50" relative="1" as="geometry">
            <mxPoint x="880" y="1880" as="sourcePoint" />
            <mxPoint x="960" y="1880" as="targetPoint" />
          </mxGeometry>
        </mxCell>
        <mxCell id="jVBs19aCsxQHMaPXjaEd-80" value="" style="endArrow=classic;html=1;rounded=0;" edge="1" parent="1">
          <mxGeometry width="50" height="50" relative="1" as="geometry">
            <mxPoint x="880" y="1919.5" as="sourcePoint" />
            <mxPoint x="960" y="1919.5" as="targetPoint" />
          </mxGeometry>
        </mxCell>
        <mxCell id="jVBs19aCsxQHMaPXjaEd-87" value="" style="endArrow=classic;html=1;rounded=0;" edge="1" parent="1">
          <mxGeometry width="50" height="50" relative="1" as="geometry">
            <mxPoint x="880" y="1960" as="sourcePoint" />
            <mxPoint x="960" y="1960" as="targetPoint" />
          </mxGeometry>
        </mxCell>
        <mxCell id="jVBs19aCsxQHMaPXjaEd-88" value="" style="endArrow=classic;html=1;rounded=0;" edge="1" parent="1">
          <mxGeometry width="50" height="50" relative="1" as="geometry">
            <mxPoint x="880" y="1999.5" as="sourcePoint" />
            <mxPoint x="960" y="1999.5" as="targetPoint" />
          </mxGeometry>
        </mxCell>
        <mxCell id="jVBs19aCsxQHMaPXjaEd-89" value="&lt;span style=&quot;font-size: 18px;&quot;&gt;agu_icb_rsp_valid&lt;/span&gt;" style="text;html=1;align=left;verticalAlign=middle;whiteSpace=wrap;rounded=0;" vertex="1" parent="1">
          <mxGeometry x="360" y="900" width="200" height="40" as="geometry" />
        </mxCell>
        <mxCell id="jVBs19aCsxQHMaPXjaEd-90" value="&lt;span style=&quot;font-size: 18px; text-align: left;&quot;&gt;agu_sbf_1_ena&lt;/span&gt;" style="text;html=1;align=right;verticalAlign=middle;whiteSpace=wrap;rounded=0;" vertex="1" parent="1">
          <mxGeometry x="680" y="1940" width="200" height="40" as="geometry" />
        </mxCell>
        <mxCell id="jVBs19aCsxQHMaPXjaEd-91" value="&lt;span style=&quot;font-size: 18px; text-align: left;&quot;&gt;agu_sbf_1_nxt&lt;/span&gt;" style="text;html=1;align=right;verticalAlign=middle;whiteSpace=wrap;rounded=0;" vertex="1" parent="1">
          <mxGeometry x="680" y="1980" width="200" height="40" as="geometry" />
        </mxCell>
      </root>
    </mxGraphModel>
  </diagram>
</mxfile>
